<?xml version="1.0" encoding="utf-8"?>
<!-- Generator: Adobe Illustrator 27.0.0, SVG Export Plug-In . SVG Version: 6.00 Build 0)  -->
<svg version="1.1" id="Layer_1" xmlns="http://www.w3.org/2000/svg" xmlns:xlink="http://www.w3.org/1999/xlink" x="0px" y="0px"
	 viewBox="0 0 106.1 106.1" style="enable-background:new 0 0 106.1 106.1;" xml:space="preserve">
<style type="text/css">
	.st0{fill:#222222;}
	.st1{fill:#F8F8F2;}
	.st2{fill:#9ECFC5;}
	.st3{fill:#C24868;}
</style>
<rect id="Rectangle_10" x="16" y="16" class="st0" width="75" height="75"/>
<path id="Rectangle_10_-_Outline" class="st1" d="M19,19v69h69V19H19 M16,16h75v75H16V16z"/>
<rect id="Rectangle_9" x="15.7" y="15.7" transform="matrix(0.9205 -0.3907 0.3907 0.9205 -16.5489 25.0026)" class="st2" width="75" height="75"/>
<path id="Rectangle_9_-_Outline" class="st1" d="M7.9,34.9l27,63.5l63.5-27l-27-63.5L7.9,34.9 M4,33.3L73,4l29.3,69l-69,29.3L4,33.3
	z"/>
<rect id="Rectangle_8" x="15.5" y="15.5" transform="matrix(0.7071 -0.7071 0.7071 0.7071 -21.967 53.033)" class="st3" width="75" height="75"/>
<path id="Rectangle_8_-_Outline" class="st1" d="M4.2,53L53,101.8L101.8,53L53,4.2L4.2,53 M0,53L53,0l53,53l-53,53L0,53z"/>
<path id="Path_1-2" class="st1" d="M56.1,76c8.2,0,14.7-3,18.8-8.4l-8.9-8c-2.5,3.1-5.4,4.9-9.2,4.9C51,64.5,47,60.4,47,54
	s4-10.5,9.8-10.5c3.8,0,6.7,1.8,9.2,4.9l8.9-8C70.8,35,64.4,32,56.1,32c-13.5,0-23.4,9.1-23.4,22S42.6,76,56.1,76z"/>
</svg>
